<svg id="Layer_1" data-name="Layer 1" xmlns="http://www.w3.org/2000/svg" viewBox="0 0 3019 518"><defs><style>.cls-1{fill:#2b2024;}</style></defs><polygon class="cls-1" points="2984.13 518 2912 518 3043.87 0 3116 0 2984.13 518"/><polygon class="cls-1" points="2877.13 518 2805 518 2936.87 0 3009 0 2877.13 518"/><polygon class="cls-1" points="2770.13 518 2698 518 2829.87 0 2902 0 2770.13 518"/><polygon class="cls-1" points="2663.13 518 2591 518 2722.87 0 2795 0 2663.13 518"/><polygon class="cls-1" points="2556.13 518 2484 518 2615.87 0 2688 0 2556.13 518"/><polygon class="cls-1" points="2449.13 518 2377 518 2508.87 0 2581 0 2449.13 518"/><polygon class="cls-1" points="2342.13 518 2270 518 2401.87 0 2474 0 2342.13 518"/><polygon class="cls-1" points="2235.13 518 2163 518 2294.87 0 2367 0 2235.13 518"/><polygon class="cls-1" points="2128.13 518 2056 518 2187.87 0 2260 0 2128.13 518"/><polygon class="cls-1" points="2021.13 518 1949 518 2080.87 0 2153 0 2021.13 518"/><polygon class="cls-1" points="1914.13 518 1842 518 1973.87 0 2046 0 1914.13 518"/><polygon class="cls-1" points="1807.13 518 1735 518 1866.87 0 1939 0 1807.13 518"/><polygon class="cls-1" points="1700.13 518 1628 518 1759.87 0 1832 0 1700.13 518"/><polygon class="cls-1" points="1593.13 518 1521 518 1652.87 0 1725 0 1593.13 518"/><polygon class="cls-1" points="1486.13 518 1414 518 1545.87 0 1618 0 1486.13 518"/><polygon class="cls-1" points="1379.13 518 1307 518 1438.87 0 1511 0 1379.13 518"/><polygon class="cls-1" points="1272.13 518 1200 518 1331.87 0 1404 0 1272.13 518"/><polygon class="cls-1" points="1165.13 518 1093 518 1224.87 0 1297 0 1165.13 518"/><polygon class="cls-1" points="1058.13 518 986 518 1117.87 0 1190 0 1058.13 518"/><polygon class="cls-1" points="951.13 518 879 518 1010.87 0 1083 0 951.13 518"/><polygon class="cls-1" points="844.13 518 772 518 903.87 0 976 0 844.13 518"/><polygon class="cls-1" points="737.13 518 665 518 796.87 0 869 0 737.13 518"/><polygon class="cls-1" points="630.13 518 558 518 689.87 0 762 0 630.13 518"/><polygon class="cls-1" points="523.13 518 451 518 582.87 0 655 0 523.13 518"/><polygon class="cls-1" points="416.13 518 344 518 475.87 0 548 0 416.13 518"/><polygon class="cls-1" points="309.13 518 237 518 368.87 0 441 0 309.13 518"/><polygon class="cls-1" points="202.13 518 130 518 261.87 0 334 0 202.13 518"/><polygon class="cls-1" points="95.13 518 23 518 154.87 0 227 0 95.13 518"/><polygon class="cls-1" points="-11.87 518 -84 518 47.87 0 120 0 -11.87 518"/></svg>